<svg width="52" height="53" viewBox="0 0 52 53" fill="none" xmlns="http://www.w3.org/2000/svg">
<path fill-rule="evenodd" clip-rule="evenodd" d="M26 52.5C40.3594 52.5 52 40.8594 52 26.5C52 12.1406 40.3594 0.5 26 0.5C11.6406 0.5 0 12.1406 0 26.5C0 40.8594 11.6406 52.5 26 52.5Z" fill="#7FDACE"/>
<path d="M39.4062 28.6109C41.0312 27.6727 41.0312 25.3273 39.4062 24.3891L21.125 13.8344C19.5 12.8962 17.4688 14.0689 17.4688 15.9453V37.0547C17.4688 38.9311 19.5 40.1038 21.125 39.1656L39.4062 28.6109Z" fill="#7FDACE"/>
<path fill-rule="evenodd" clip-rule="evenodd" d="M21.125 13.8344L39.4062 24.3891C41.0312 25.3273 41.0312 27.6727 39.4062 28.6109L21.125 39.1656C19.5 40.1038 17.4688 38.9311 17.4688 37.0547V15.9453C17.4688 14.0689 19.5 12.8962 21.125 13.8344Z" fill="white"/>
</svg>
