<svg width="52" height="53" viewBox="0 0 52 53" fill="none" xmlns="http://www.w3.org/2000/svg">
<path fill-rule="evenodd" clip-rule="evenodd" d="M26 52.5C11.6406 52.5 0 40.8594 0 26.5C0 12.1406 11.6406 0.5 26 0.5C40.3594 0.5 52 12.1406 52 26.5C52 40.8594 40.3594 52.5 26 52.5Z" fill="#7FDACE"/>
<path d="M12.5938 28.6109C10.9688 27.6727 10.9688 25.3273 12.5938 24.3891L30.875 13.8344C32.5 12.8962 34.5312 14.0689 34.5312 15.9453V37.0547C34.5312 38.9311 32.5 40.1038 30.875 39.1656L12.5938 28.6109Z" fill="#7FDACE"/>
<path fill-rule="evenodd" clip-rule="evenodd" d="M30.875 13.8344L12.5938 24.3891C10.9688 25.3273 10.9688 27.6727 12.5938 28.6109L30.875 39.1656C32.5 40.1038 34.5312 38.9311 34.5312 37.0547V15.9453C34.5312 14.0689 32.5 12.8962 30.875 13.8344Z" fill="white"/>
</svg>
