<svg width="24" height="24" viewBox="0 0 24 24" fill="none" xmlns="http://www.w3.org/2000/svg">
<path d="M22.6293 7.61056C22.6173 6.71079 22.4489 5.81997 22.1315 4.97795C21.8563 4.2677 21.436 3.62268 20.8974 3.08408C20.3588 2.54547 19.7138 2.12515 19.0035 1.84994C18.1723 1.53792 17.2942 1.36921 16.4065 1.35098C15.2637 1.2999 14.9013 1.28564 12.0003 1.28564C9.09916 1.28564 8.72731 1.28564 7.59277 1.35098C6.70552 1.36934 5.82782 1.53806 4.99699 1.84994C4.28664 2.12495 3.64151 2.54522 3.10288 3.08384C2.56426 3.62247 2.144 4.26759 1.86899 4.97795C1.55634 5.80852 1.38799 6.68642 1.37122 7.57373C1.32013 8.71777 1.30469 9.08011 1.30469 11.9812C1.30469 14.8823 1.30469 15.253 1.37122 16.3887C1.38904 17.2773 1.55654 18.1541 1.86899 18.9868C2.14446 19.697 2.56503 20.3419 3.10384 20.8802C3.64264 21.4186 4.28783 21.8387 4.99818 22.1137C5.82673 22.4382 6.70459 22.619 7.59396 22.6483C8.738 22.6993 9.10034 22.7148 12.0014 22.7148C14.9025 22.7148 15.2744 22.7148 16.4089 22.6483C17.2965 22.6308 18.1747 22.4625 19.0059 22.1505C19.7159 21.875 20.3608 21.4545 20.8994 20.916C21.4379 20.3774 21.8584 19.7325 22.1339 19.0225C22.4463 18.1909 22.6138 17.3141 22.6317 16.4243C22.6827 15.2815 22.6982 14.9191 22.6982 12.0168C22.6958 9.11575 22.6958 8.74747 22.6293 7.61056ZM11.9931 17.4674C8.95897 17.4674 6.501 15.0094 6.501 11.9753C6.501 8.94112 8.95897 6.48314 11.9931 6.48314C13.4497 6.48314 14.8467 7.06178 15.8766 8.09175C16.9066 9.12172 17.4852 10.5187 17.4852 11.9753C17.4852 13.4319 16.9066 14.8288 15.8766 15.8588C14.8467 16.8888 13.4497 17.4674 11.9931 17.4674ZM17.7038 7.56066C17.5356 7.56082 17.369 7.5278 17.2136 7.46349C17.0581 7.39919 16.9169 7.30486 16.7979 7.18591C16.679 7.06696 16.5846 6.92572 16.5203 6.77027C16.456 6.61482 16.423 6.44822 16.4232 6.28C16.4232 6.1119 16.4563 5.94544 16.5206 5.79013C16.5849 5.63483 16.6792 5.49372 16.7981 5.37485C16.917 5.25598 17.0581 5.1617 17.2134 5.09737C17.3687 5.03304 17.5351 4.99993 17.7032 4.99993C17.8713 4.99993 18.0378 5.03304 18.1931 5.09737C18.3484 5.1617 18.4895 5.25598 18.6084 5.37485C18.7273 5.49372 18.8215 5.63483 18.8859 5.79013C18.9502 5.94544 18.9833 6.1119 18.9833 6.28C18.9833 6.98804 18.4107 7.56066 17.7038 7.56066Z" fill="#E04E1F"/>
<path d="M11.9931 15.5428C13.9634 15.5428 15.5607 13.9456 15.5607 11.9753C15.5607 10.005 13.9634 8.4077 11.9931 8.4077C10.0228 8.4077 8.42556 10.005 8.42556 11.9753C8.42556 13.9456 10.0228 15.5428 11.9931 15.5428Z" fill="#E04E1F"/>
</svg>
